Coordinates
version=1
nRows=38
nColumns=12
inDegrees=yes

Units are S.I. units (second, meters, Newtons, ...)
Angles are in degrees

endheader
time	SC_y	SC_z	SC_x	AC_y	AC_z	AC_x	GH_y	GH_z	GH_yy	EL_x	PS_y
       0.0              -30.24       -0.08616          64.57          34.08         -6.201           14.9          49.13          24.39          35.14          8.076          9.228
   0.01298              -30.24       -0.08116          64.57          34.08         -6.198           14.9          49.14          24.39          35.14          8.077          9.236
   0.02596              -30.24       -0.07584          64.57          34.08         -6.196           14.9          49.15          24.38          35.15          8.078          9.244
   0.03894              -30.24       -0.07019          64.56          34.08         -6.194           14.9          49.17          24.38          35.16           8.08          9.253
   0.05192              -30.24       -0.06418          64.56          34.08         -6.191           14.9          49.18          24.38          35.16          8.081          9.262
    0.0649              -30.24       -0.05776          64.56          34.08         -6.188           14.9          49.19          24.38          35.17          8.083          9.272
   0.07788              -30.24       -0.05092          64.55          34.08         -6.185           14.9           49.2          24.38          35.18          8.085          9.283
   0.09086              -30.24       -0.04359          64.55          34.08         -6.182          14.89          49.22          24.37          35.19          8.087          9.295
    0.1038              -30.24       -0.03575          64.55          34.09         -6.179          14.89          49.23          24.37           35.2          8.089          9.307
    0.1168              -30.24       -0.02734          64.54          34.09         -6.175          14.89          49.25          24.37          35.21          8.091           9.32
    0.1298              -30.24       -0.01831          64.54          34.09         -6.171          14.89          49.26          24.37          35.22          8.093          9.335
    0.1428              -30.24      -0.008582          64.53          34.09         -6.167          14.89          49.28          24.36          35.23          8.096           9.35
    0.1558              -30.24       0.001899          64.53          34.09         -6.163          14.89           49.3          24.36          35.25          8.098          9.366
    0.1687              -30.23        0.01322          64.52          34.09         -6.158          14.88          49.32          24.36          35.26          8.101          9.384
    0.1817              -30.23        0.02547          64.52          34.09         -6.153          14.88          49.35          24.35          35.27          8.104          9.403
    0.1947              -30.23        0.03876          64.51           34.1         -6.147          14.88          49.37          24.35          35.29          8.108          9.424
    0.2077              -30.23         0.0532           64.5           34.1         -6.141          14.87           49.4          24.34          35.31          8.112          9.447
    0.2207              -30.23        0.06893          64.49           34.1         -6.134          14.87          49.43          24.34          35.33          8.116          9.472
    0.2336              -30.23        0.08611          64.49           34.1         -6.127          14.87          49.46          24.33          35.35           8.12          9.499
    0.2466              -30.23         0.1049          64.48           34.1         -6.118          14.86           49.5          24.33          35.37          8.125          9.529
    0.2596              -30.22         0.1256          64.47          34.11          -6.11          14.86          49.54          24.32           35.4           8.13          9.561
    0.2726              -30.22         0.1483          64.45          34.11           -6.1          14.86          49.58          24.31          35.43          8.136          9.597
    0.2856              -30.22         0.1734          64.44          34.11         -6.089          14.85          49.63          24.31          35.46          8.143          9.637
    0.2985              -30.22         0.2012          64.43          34.12         -6.077          14.84          49.68           24.3          35.49           8.15           9.68
    0.3115              -30.21         0.2321          64.41          34.12         -6.064          14.84          49.74          24.29          35.53          8.158          9.729
    0.3245              -30.21         0.2667           64.4          34.13         -6.049          14.83           49.8          24.28          35.57          8.167          9.783
    0.3375              -30.21         0.3053          64.38          34.13         -6.032          14.82          49.88          24.26          35.62          8.177          9.844
    0.3505               -30.2         0.3488          64.35          34.14         -6.013          14.81          49.96          24.25          35.67          8.188          9.913
    0.3634               -30.2         0.3979          64.33          34.15         -5.992           14.8          50.05          24.23          35.73          8.201           9.99
    0.3764              -30.19         0.4537           64.3          34.15         -5.968          14.79          50.16          24.22           35.8          8.215          10.08
    0.3894              -30.18         0.5174          64.27          34.16         -5.941          14.78          50.28           24.2          35.88          8.231          10.18
    0.4024              -30.18         0.5905          64.23          34.17         -5.909          14.76          50.42          24.17          35.97           8.25          10.29
    0.4154              -30.17         0.6748          64.19          34.18         -5.873          14.75          50.58          24.15          36.07          8.272          10.43
    0.4283              -30.16         0.7728          64.14           34.2         -5.831          14.73          50.77          24.11          36.19          8.297          10.58
    0.4413              -30.15         0.8875          64.09          34.21         -5.782           14.7          50.98          24.08          36.33          8.327          10.76
    0.4543              -30.13          1.023          64.02          34.23         -5.723          14.67          51.24          24.04           36.5          8.362          10.97
    0.4673              -30.12          1.183          63.94          34.25         -5.654          14.64          51.54          23.98          36.69          8.403          11.23
    0.4803               -30.1          1.376          63.84          34.28         -5.571           14.6          51.91          23.92          36.93          8.453          11.53
